<svg xmlns="http://www.w3.org/2000/svg" xmlns:xlink="http://www.w3.org/1999/xlink" width="232.678" height="59.999" viewBox="0 0 232.678 59.999"><defs><clipPath id="a"><rect width="232.678" height="59.999" fill="none"/></clipPath></defs><g clip-path="url(#a)"><path d="M220.345,69.342H12.333a12.332,12.332,0,1,1,0-24.665H220.345a12.332,12.332,0,1,1,0,24.665" transform="translate(0 -23.105)" fill="#b0dcd5"/><path d="M60.525,47.287a14.151,14.151,0,1,1-2.078-19.9,14.152,14.152,0,0,1,2.078,19.9" transform="translate(-18.298 -12.526)" fill="#fff"/><path d="M47.912,52.418a15.65,15.65,0,1,1,12.177-5.789,15.587,15.587,0,0,1-12.177,5.789m.039-28.3a12.83,12.83,0,0,0-1.337.07,12.6,12.6,0,1,0,1.337-.07" transform="translate(-16.691 -10.919)" fill="#fff"/><path d="M30.826,48.935A3,3,0,0,0,28.019,50l-5.468,6.742A12.3,12.3,0,0,0,24,56.833h6.249L32.7,53.8a3,3,0,0,0,.465-2.967l.895-1.1a15.954,15.954,0,1,0-2.343-1.9Zm2.486-20.266a12.342,12.342,0,1,1,1.812,17.36,12.323,12.323,0,0,1-1.812-17.36" transform="translate(-11.662 -10.596)" fill="#4c4948"/><path d="M25.682,9.159l-.029-.033c-.37-.408-.121-.991.291-1.364s1.031-.547,1.4-.138l.015.016,2.886,3.514A.8.8,0,0,1,30.1,12.3a.819.819,0,0,1-1.151.03Zm2.428-2.2L28.1,6.945c-.37-.408-.15-.994.277-1.38s1.031-.577,1.4-.168l.029.033L32.63,9a.818.818,0,0,1-.144,1.142.8.8,0,0,1-1.151.03Zm5.784-3.9-.014-.042c-.175-.523.286-.957.813-1.134.546-.183,1.164-.088,1.339.434l.007.021,1.24,4.376a.8.8,0,0,1-.589.989.818.818,0,0,1-1.067-.433ZM37,2.021,36.991,2c-.175-.523.26-.971.806-1.155s1.175-.116,1.351.407l.014.042,1.164,4.4a.819.819,0,0,1-.589.989.8.8,0,0,1-1.067-.433ZM43.875.767l0-.044c.047-.549.643-.764,1.2-.716.574.049,1.1.382,1.056.931l0,.022-.607,4.507a.8.8,0,0,1-.935.673.818.818,0,0,1-.805-.822Zm3.262.281,0-.022c.048-.549.626-.787,1.2-.738s1.125.362,1.077.912l0,.044-.687,4.5a.819.819,0,0,1-.935.673.8.8,0,0,1-.805-.822Z" transform="translate(-13.173 0)" fill="#4c4948"/><path d="M48.281,37.289a1.042,1.042,0,0,1-.808-1.7,10.561,10.561,0,0,1,14.838-1.549A1.042,1.042,0,1,1,61,35.66,8.465,8.465,0,0,0,49.091,36.9a1.041,1.041,0,0,1-.81.386" transform="translate(-24.431 -16.389)" fill="#4c4948"/><path d="M46.1,45.228a1.042,1.042,0,1,1-1.042-1.042A1.042,1.042,0,0,1,46.1,45.228" transform="translate(-22.763 -22.851)" fill="#4c4948"/><path d="M151.7,25.56l-.231,1.19c-.085.444-2.036,10.252-7.492,17.9l2.7,3.551a1.5,1.5,0,0,1-.286,2.1l-1.592,1.21a1.5,1.5,0,0,1-2.1-.286l-7.808-10.272a1.5,1.5,0,0,1,.286-2.1l1.592-1.21a1.5,1.5,0,0,1,2.1.286l1.913,2.516a46.359,46.359,0,0,0,5.031-11.675H134.125a1.5,1.5,0,0,1-1.5-1.5v-2a1.5,1.5,0,0,1,1.5-1.5h16.1A1.5,1.5,0,0,1,151.7,25.56m-28.443,14.4a54.778,54.778,0,0,0,4.659-13.207l.23-1.19a1.5,1.5,0,0,0-1.473-1.785H111.62a1.5,1.5,0,0,0-1.5,1.5v2a1.5,1.5,0,0,0,1.5,1.5h10.641a52.25,52.25,0,0,1-2.439,6.779c-1.826,4.111-4.9,9.326-9.435,11.786a1.5,1.5,0,0,0-.677,1.885l.76,1.862a1.5,1.5,0,0,0,2.083.766,23.107,23.107,0,0,0,7.928-7.284l5.065,6.663a1.5,1.5,0,0,0,2.1.286l1.592-1.21a1.5,1.5,0,0,0,.286-2.1ZM167.645,34.2h-11.52a1.5,1.5,0,0,0-1.5,1.5v2a1.5,1.5,0,0,0,1.5,1.5h11.52a1.5,1.5,0,0,0,1.5-1.5v-2a1.5,1.5,0,0,0-1.5-1.5m20.176,0h-8.778V23.862a1.5,1.5,0,0,0-1.5-1.5h-2a1.5,1.5,0,0,0-1.5,1.5V50.486a1.5,1.5,0,0,0,1.5,1.5h2a1.5,1.5,0,0,0,1.5-1.5V39.2h8.778a1.5,1.5,0,0,0,1.5-1.5v-2a1.5,1.5,0,0,0-1.5-1.5m57.419-4.221h-4.573V23.72a1.3,1.3,0,0,0-1.3-1.3h-1.1a1.3,1.3,0,0,0-1.3,1.3v6.261h-.611a1.3,1.3,0,0,0-1.3,1.3v1.1a1.3,1.3,0,0,0,1.3,1.3h.611V45.5a1.3,1.3,0,0,0,1.3,1.3h1.1a1.3,1.3,0,0,0,1.3-1.3V33.681h2.173V48.427h-.55a1.3,1.3,0,0,0-1.3,1.3v1.1a1.3,1.3,0,0,0,1.3,1.3h2.95a1.3,1.3,0,0,0,1.3-1.3V31.281a1.3,1.3,0,0,0-1.3-1.3m-26.12-3.517v1.1a1.3,1.3,0,0,1-1.3,1.3h-4.171v1.769h3.825a1.3,1.3,0,0,1,1.3,1.3V50.986a1,1,0,0,1-1,1h-1a1,1,0,0,1-1-1V47.535h-2.125v1.743a1,1,0,0,1-1,1h-1a1,1,0,0,1-1-1V47.535h-2.124v3.451a1,1,0,0,1-1,1h-1a1,1,0,0,1-1-1V31.934a1.3,1.3,0,0,1,1.3-1.3h3.824V28.865h-4.17a1.3,1.3,0,0,1-1.3-1.3v-1.1a1.3,1.3,0,0,1,1.3-1.3h4.17V22.073a1,1,0,0,1,1-1h1a1,1,0,0,1,1,1v3.091h4.171a1.3,1.3,0,0,1,1.3,1.3m-10.6,7.869v2.9h2.124v-2.9h-2.124Zm2.124,6.6h-2.124v2.9h2.124Zm5.125,0h-2.125v2.9h2.125Zm-2.125-6.6v2.9h2.125v-2.9h-2.125Zm2.372-10.064h1.723a1.3,1.3,0,0,0,1.3-1.3v-.6a1.3,1.3,0,0,0-1.3-1.3h-1.723a1.3,1.3,0,0,0-1.3,1.3v.6a1.3,1.3,0,0,0,1.3,1.3m19.911,24.1a1.3,1.3,0,0,1-1.02,1.53l-9.662,1.933a1.3,1.3,0,0,1-1.53-1.02l-.216-1.079a1.3,1.3,0,0,1,1.02-1.53l.1-.021V24.745a1.3,1.3,0,0,1,1.3-1.3h7.289a1.3,1.3,0,0,1,1.3,1.3V46.257a1.3,1.3,0,0,1,1.2,1.038Zm-5.116-14h-2.488v3.532h2.488Zm-2.488-3.7h2.488V27.145h-2.488Zm0,16.771,2.488-.5v-5.34h-2.488Zm43.678.98H270.05V45.3a1.3,1.3,0,0,0-1.3-1.3h-1.1a1.3,1.3,0,0,0-1.3,1.3v3.125H264.32V42.774h6.4a1.3,1.3,0,0,0,1.3-1.3v-1.1a1.3,1.3,0,0,0-1.3-1.3h-6.4V36.053h3.468a1.3,1.3,0,0,0,1.3-1.3v-1.1a1.3,1.3,0,0,0-1.3-1.3H257.153a1.3,1.3,0,0,0-1.3,1.3v1.1a1.3,1.3,0,0,0,1.3,1.3h3.467v3.021h-6.4a1.3,1.3,0,0,0-1.3,1.3v1.1a1.3,1.3,0,0,0,1.3,1.3h6.4v5.654h-2.029V45.3a1.3,1.3,0,0,0-1.3-1.3h-1.1a1.3,1.3,0,0,0-1.3,1.3v3.125h-1.956a1.3,1.3,0,0,0-1.3,1.3v1.1a1.3,1.3,0,0,0,1.3,1.3h19.071a1.3,1.3,0,0,0,1.3-1.3v-1.1a1.3,1.3,0,0,0-1.3-1.3m2.19-15.7L263.409,21.474a1.3,1.3,0,0,0-1.877,0L250.745,32.728a1.3,1.3,0,0,0,.039,1.838l.795.761a1.3,1.3,0,0,0,1.838-.039l9.053-9.447,9.054,9.447a1.3,1.3,0,0,0,1.838.039l.794-.761a1.3,1.3,0,0,0,.039-1.838m-70.583,5.123,1.463-2.966a1.1,1.1,0,0,0-.5-1.473l-.717-.354a1.1,1.1,0,0,0-1.473.5l-.512,1.04-.628-1.173,3.4-6.347a1.3,1.3,0,0,0-1.146-1.914h-2.122V22.373a1.3,1.3,0,0,0-1.3-1.3h-1.1a1.3,1.3,0,0,0-1.3,1.3v2.791h-2.389a1.3,1.3,0,0,0-1.3,1.3v1.1a1.3,1.3,0,0,0,1.3,1.3h4.2L193.22,40.58a1.3,1.3,0,0,0,.533,1.76l.97.519a1.3,1.3,0,0,0,1.759-.533l1.19-2.223V50.686a1.3,1.3,0,0,0,1.3,1.3h1.1a1.3,1.3,0,0,0,1.3-1.3V41.507l.438.819a1.3,1.3,0,0,0,1.759.533l.97-.519a1.3,1.3,0,0,0,.533-1.759Z" transform="translate(-56.68 -10.898)" fill="#4c4948"/><path d="M53.759,116.757v-6.649h5.366v6.633h-.993v-.484H54.712v.5Zm4.374-5.729H54.712v1.661h3.421Zm0,2.574H54.712v1.727h3.421Z" transform="translate(-27.802 -56.943)" fill="#4c4948"/><path d="M73.806,111.569H71.45v-.92h2.9v-1.492h.96v1.492h2.929v.92H75.871a6.693,6.693,0,0,0,2.7,2.8,3.772,3.772,0,0,0-.71.839,6.616,6.616,0,0,1-1.259-1.033v.879H75.315v1.3h-.96v-1.3H73.023v-.815a6.939,6.939,0,0,1-1.2.993,4.366,4.366,0,0,0-.67-.767,6.856,6.856,0,0,0,2.655-2.9m.549,2.549V112.44a9.14,9.14,0,0,1-1.21,1.678Zm.96-1.694v1.694h1.226a8.712,8.712,0,0,1-1.226-1.694" transform="translate(-36.796 -56.451)" fill="#4c4948"/><path d="M91.718,115.379v-2.34h-.6v-.727h6.85v.727H94.446v2.816a4.056,4.056,0,0,0,1.089-.549,4.772,4.772,0,0,1-.7-1.146l.508-.137h-.7v-.7h2.4l.154-.032.565.218a4.623,4.623,0,0,1-.977,1.815,4.342,4.342,0,0,0,1.364.565,3.662,3.662,0,0,0-.54.718,4.142,4.142,0,0,1-1.436-.718,4.829,4.829,0,0,1-1.315.718,3.247,3.247,0,0,0-.4-.613v.621h-.88v-.621c-.887.081-1.767.161-2.444.218l-.073-.783c.2-.016.436-.024.669-.048m5.375-3.357H92.017v-2.364h5.076Zm-4.535,1.323h1.008v-.306H92.558Zm1.008.638H92.558v.323h1.008Zm-1.008.96v.379c.331-.024.67-.048,1.008-.081v-.3Zm3.615-4.7H92.9v.315h3.276ZM92.9,111.441h3.276v-.323H92.9Zm3.227,3.341a3.258,3.258,0,0,0,.524-.759H95.608a3.023,3.023,0,0,0,.517.759" transform="translate(-47.087 -56.711)" fill="#4c4948"/><path d="M113.262,112.166h-2.655v-.952h2.808a20.4,20.4,0,0,0,.081-2.057h1c-.008.638-.016,1.347-.089,2.057h3.026v.952h-2.712a5.15,5.15,0,0,0,2.881,3.3,4.185,4.185,0,0,0-.677.863,5.735,5.735,0,0,1-2.889-3.268,5.3,5.3,0,0,1-2.889,3.276,2.685,2.685,0,0,0-.686-.775,4.631,4.631,0,0,0,2.8-3.4" transform="translate(-57.126 -56.451)" fill="#4c4948"/><path d="M130.036,113.667l.759.129a7.115,7.115,0,0,1-.468,1.985,5.161,5.161,0,0,0-.7-.331,5.575,5.575,0,0,0,.412-1.783m-.331-1.13.565-.024c.113-.154.225-.315.355-.492a7.811,7.811,0,0,0-.912-1.049l.435-.629c.056.048.122.1.178.161a9.486,9.486,0,0,0,.565-1.347l.79.3c-.274.524-.581,1.121-.863,1.549.1.1.185.21.266.307.259-.436.509-.872.687-1.251l.75.347c-.427.67-.96,1.453-1.444,2.074l.831-.04a5.475,5.475,0,0,0-.259-.541l.6-.258a5.91,5.91,0,0,1,.686,1.637l-.653.291c-.024-.113-.056-.25-.1-.4l-.493.041v3.155H130.9v-3.1c-.4.024-.79.048-1.121.065Zm2.678,1.049a6.223,6.223,0,0,1,.356.96,8.164,8.164,0,0,0,.459-2.961v-1.146h-.646V109.6h2.566l.137-.04.614.072c-.081.573-.194,1.235-.324,1.88h.638l.154-.032.548.21a7.72,7.72,0,0,1-1.21,3.09,3.771,3.771,0,0,0,1.363.84,2.864,2.864,0,0,0-.557.743,4.4,4.4,0,0,1-1.355-.92,4.734,4.734,0,0,1-1.17.9,3.1,3.1,0,0,0-.621-.677,4.514,4.514,0,0,0,1.243-.9,6.561,6.561,0,0,1-.693-1.444,5.557,5.557,0,0,1-1.259,3,3.462,3.462,0,0,0-.67-.484,4.006,4.006,0,0,0,.589-.847l-.388.137a8.583,8.583,0,0,0-.419-1.331Zm1.606-3.147v.3a8.117,8.117,0,0,0,1.122,3.357,5.786,5.786,0,0,0,.774-1.767h-.508l-.056.3-.823-.089c.153-.646.3-1.452.4-2.1Z" transform="translate(-67.036 -56.451)" fill="#4c4948"/><path d="M153.021,115.977a5.346,5.346,0,0,0,.71-.121,2.066,2.066,0,0,0,1.735-2.041,1.89,1.89,0,0,0-1.6-2.026c-.2,1.283-.815,4.559-2.4,4.559-.839,0-1.558-.928-1.558-2.219a3.4,3.4,0,0,1,3.518-3.268,2.911,2.911,0,0,1,3.082,2.985c0,1.6-.984,2.743-2.913,3.034Zm-.185-4.164a2.406,2.406,0,0,0-1.937,2.211c0,.774.315,1.154.6,1.154.75,0,1.251-2.728,1.339-3.365" transform="translate(-77.525 -57.333)" fill="#4c4948"/><path d="M170.2,111.384h-1.517v-.823h.855v-1.379h.848v1.379h.218l.161-.032.46.3a8.967,8.967,0,0,1-.718,1.662l.2.258a5.222,5.222,0,0,0,.412-.718l.451.339v-.831h1.549v-.5h-1.783v-.815h1.783v-1.049h.872v1.049h.936a5.957,5.957,0,0,0-.775-.557l.5-.476a4.8,4.8,0,0,1,1.016.7l-.331.331h.42v.815h-1.767v.5h1.59V115.5c0,.815-.476.872-1.17.872a3.011,3.011,0,0,0-.274-.783c.2.008.4.008.476.008s.1-.025.1-.113v-.638h-.717v1.477h-.872v-1.477h-.7v1.5h-.847v-3.825c-.178.234-.355.468-.508.662l.388.492-.533.605a8.248,8.248,0,0,0-.524-.847v2.921h-.847v-2.461a6.316,6.316,0,0,1-.637.662,3.488,3.488,0,0,0-.436-.831,6.5,6.5,0,0,0,1.727-2.34m2.218,1.468h.7V112.3h-.7Zm.7.71h-.7v.557h.7Zm1.59-1.259h-.718v.549h.718Zm0,1.259h-.718v.557h.718Z" transform="translate(-87.124 -56.46)" fill="#4c4948"/><path d="M188.1,114.651c.153-.032.339-.065.532-.1v-5.092H191.3v4.55l.339-.072.081.727a6.125,6.125,0,0,0,.774-2.994h-.985V110.8h1.017V109.14h.9c0,.581,0,1.138-.016,1.662h1.679v.4c-.073,3.163-.137,4.3-.4,4.656a.861.861,0,0,1-.637.4,3.744,3.744,0,0,1-.573.032c-.153,0-.315-.007-.476-.007a1.967,1.967,0,0,0-.275-.872c.38.016.726.025.9.025a.287.287,0,0,0,.274-.129c.178-.21.242-1.162.291-3.639h-.815c-.121,2.033-.533,3.655-2.026,4.68a2.886,2.886,0,0,0-.637-.694,3.389,3.389,0,0,0,.912-.872c-1.186.29-2.445.589-3.389.807Zm1.339-3.591h1.016v-.774h-1.016Zm0,1.6h1.016v-.791h-1.016Zm0,1.735c.323-.057.661-.138,1.016-.21v-.718h-1.016Z" transform="translate(-97.277 -56.443)" fill="#4c4948"/><path d="M210.676,109.09h.953a7.811,7.811,0,0,0,3.292,2.631,4.187,4.187,0,0,0-.613.831,11.111,11.111,0,0,1-1.169-.734v.4h-1.477v.758h2.38v.791h-1.307l.879.323c-.29.42-.589.9-.863,1.218h1.743v.783h-6.52v-.783h1.5a5.351,5.351,0,0,0-.637-1.242l.7-.3h-1.186v-.791H210.7v-.758H209.28v-.38a11.3,11.3,0,0,1-1.146.718,3.755,3.755,0,0,0-.573-.743,8.229,8.229,0,0,0,3.114-2.727m-1.1,4.68a4.807,4.807,0,0,1,.71,1.267l-.629.274H210.7V113.77Zm3.034-2.356a7.892,7.892,0,0,1-1.421-1.428,7.707,7.707,0,0,1-1.364,1.428Zm-.1,3.9-.5-.21a8.561,8.561,0,0,0,.727-1.332h-1.073v1.541Z" transform="translate(-107.342 -56.417)" fill="#4c4948"/><path d="M233.608,114.554a.989.989,0,1,1-.984.992,1,1,0,0,1,.984-.992" transform="translate(-120.303 -59.243)" fill="#4c4948"/><path d="M246.641,114.651c.153-.032.339-.065.533-.1v-5.092h2.671v4.55l.339-.072.081.727a6.125,6.125,0,0,0,.774-2.994h-.984V110.8h1.016V109.14h.9c0,.581,0,1.138-.016,1.662h1.678v.4c-.073,3.163-.137,4.3-.4,4.656a.859.859,0,0,1-.637.4,3.737,3.737,0,0,1-.573.032c-.154,0-.315-.007-.476-.007a1.967,1.967,0,0,0-.275-.872c.38.016.727.025.9.025a.288.288,0,0,0,.275-.129c.178-.21.242-1.162.291-3.639h-.815c-.121,2.033-.533,3.655-2.026,4.68a2.9,2.9,0,0,0-.637-.694,3.367,3.367,0,0,0,.912-.872c-1.186.29-2.445.589-3.389.807Zm1.339-3.591H249v-.774H247.98Zm0,1.6H249v-.791H247.98Zm0,1.735c.323-.057.661-.138,1.016-.21v-.718H247.98Z" transform="translate(-127.552 -56.443)" fill="#4c4948"/><path d="M266.154,115.744a6.435,6.435,0,0,0,.637-3.268v-2.251h3.147c-.016-.38-.033-.759-.033-1.146h.969c-.008.387,0,.767.016,1.146h1.178a8.194,8.194,0,0,0-.985-.67l.549-.548a5.839,5.839,0,0,1,1.258.823l-.37.4h.807v.912h-2.389a17.524,17.524,0,0,0,.315,2.106,7.442,7.442,0,0,0,.734-1.711l.92.226a8.942,8.942,0,0,1-1.323,2.647c.226.557.468.879.718.879.186,0,.275-.388.315-1.348a2.747,2.747,0,0,0,.775.516c-.145,1.421-.452,1.767-1.17,1.767-.541,0-.96-.387-1.3-1.025a6.5,6.5,0,0,1-1.308,1.049,5.7,5.7,0,0,0-.661-.751,6.05,6.05,0,0,0,1.574-1.251,15.364,15.364,0,0,1-.533-3.107H267.76v.823h1.9s-.008.234-.008.347c-.024,1.622-.073,2.308-.25,2.526a.725.725,0,0,1-.533.314c-.2.025-.532.025-.887.025a2.127,2.127,0,0,0-.25-.864c.275.025.541.032.661.032a.269.269,0,0,0,.234-.088,4.638,4.638,0,0,0,.129-1.452h-1a7.228,7.228,0,0,1-.831,3.574,4.131,4.131,0,0,0-.774-.63" transform="translate(-137.643 -56.374)" fill="#4c4948"/><path d="M288.731,109.09h.953a7.811,7.811,0,0,0,3.292,2.631,4.187,4.187,0,0,0-.613.831,11.116,11.116,0,0,1-1.169-.734v.4h-1.477v.758h2.38v.791h-1.307l.879.323c-.29.42-.589.9-.863,1.218h1.743v.783h-6.52v-.783h1.5a5.351,5.351,0,0,0-.637-1.242l.7-.3h-1.186v-.791h2.349v-.758h-1.421v-.38a11.3,11.3,0,0,1-1.146.718,3.755,3.755,0,0,0-.573-.743,8.229,8.229,0,0,0,3.114-2.727m-1.1,4.68a4.807,4.807,0,0,1,.71,1.267l-.629.274h1.041V113.77Zm3.034-2.356a7.894,7.894,0,0,1-1.421-1.428,7.708,7.708,0,0,1-1.364,1.428Zm-.1,3.9-.5-.21a8.562,8.562,0,0,0,.727-1.332h-1.073v1.541Z" transform="translate(-147.709 -56.417)" fill="#4c4948"/><path d="M305.5,114.343a8.035,8.035,0,0,0,1.452-1.993l.872.412a12.2,12.2,0,0,1-1.493,2.154Zm.355-2.646v-1.025a5.752,5.752,0,0,0,.751.056h1.961v-.613a3.757,3.757,0,0,0-.073-.67h1.145a5.887,5.887,0,0,0-.072.67v.613h1.8a7.207,7.207,0,0,0,.75-.048v1.009c-.234-.016-.533-.024-.743-.024h-1.807v3.59c0,.444-.25.718-.8.718a10.714,10.714,0,0,1-1.259-.065l-.1-.96a5.2,5.2,0,0,0,.855.1c.2,0,.282-.081.291-.282.008-.282.008-2.727.008-3.09v-.008H306.6c-.234,0-.533.008-.751.032m4.446,1.089.839-.46a18.366,18.366,0,0,1,1.323,2.033l-.912.492a14.457,14.457,0,0,0-1.251-2.066m1.291-3.929a.892.892,0,0,1,0,1.783.892.892,0,0,1,0-1.783m-.42.887a.42.42,0,1,0,.839,0,.42.42,0,1,0-.839,0" transform="translate(-157.99 -56.296)" fill="#4c4948"/><path d="M325.046,115.273c.274.024.839.049,1.242.049h4.139c.355,0,.7-.033.9-.049v1.21c-.185,0-.581-.032-.9-.032h-4.139c-.444,0-.96.016-1.242.032Z" transform="translate(-168.099 -59.614)" fill="#4c4948"/><path d="M349.768,110.831a4.5,4.5,0,0,0-.25.549,8.947,8.947,0,0,1-1.065,2.114c.282.177.549.355.743.493l-.7.9c-.185-.161-.436-.347-.718-.549a7.305,7.305,0,0,1-2.848,1.921l-.9-.774a6.561,6.561,0,0,0,2.881-1.735c-.525-.339-1.049-.654-1.445-.88l.654-.726c.411.2.936.5,1.452.807a5.476,5.476,0,0,0,.8-1.646h-2.211a9.172,9.172,0,0,1-2.033,1.993l-.839-.637a7.013,7.013,0,0,0,2.461-2.566,3.089,3.089,0,0,0,.347-.807l1.121.347c-.185.267-.387.621-.476.783l-.008.008h1.582a2.379,2.379,0,0,0,.67-.081Z" transform="translate(-177.534 -56.52)" fill="#4c4948"/><path d="M361.283,116.076a3.712,3.712,0,0,0,1.315-1.848,13.193,13.193,0,0,0,.218-3.05,2.705,2.705,0,0,0-.065-.7h1.129a5.13,5.13,0,0,0-.048.694,16.965,16.965,0,0,1-.234,3.316,4.505,4.505,0,0,1-1.372,2.211Zm3.575.113a2.811,2.811,0,0,0,.064-.573v-4.494a3.259,3.259,0,0,0-.064-.661H366a4.144,4.144,0,0,0-.049.67v4.034a4.93,4.93,0,0,0,1.9-1.63l.589.847a8.319,8.319,0,0,1-2.615,2.105,2.294,2.294,0,0,0-.338.234Z" transform="translate(-186.84 -57.125)" fill="#4c4948"/><path d="M381.6,111.483h.654v-.758a5.925,5.925,0,0,0-.048-.694h1.1a4.544,4.544,0,0,0-.048.7v.75h1.832v-.807a4.9,4.9,0,0,0-.049-.718h1.1a6.448,6.448,0,0,0-.048.718v.807h.573a5.256,5.256,0,0,0,.847-.049v1.026c-.169-.016-.436-.025-.847-.025h-.573v.251c0,1.92-.46,3.082-2.324,3.9l-.823-.775c1.492-.516,2.147-1.194,2.147-3.082v-.29h-1.832v1.049c0,.339.025.653.032.807h-1.081a5.931,5.931,0,0,0,.048-.807v-1.049H381.6c-.387,0-.67.016-.839.032v-1.048a5.37,5.37,0,0,0,.839.064" transform="translate(-196.913 -56.866)" fill="#4c4948"/><path d="M403.565,115.334a5.869,5.869,0,0,0,.065,1.009h-1.218a8.223,8.223,0,0,0,.057-1.009V112.8a14.422,14.422,0,0,1-2.655,1.049l-.557-.936a11.922,11.922,0,0,0,3.51-1.4,8.428,8.428,0,0,0,2.017-1.743l.823.743a12.7,12.7,0,0,1-2.041,1.662Z" transform="translate(-206.478 -56.771)" fill="#4c4948"/><path d="M420.793,110.042a7.889,7.889,0,0,0-.072.928v1.138a24.964,24.964,0,0,1,3.227,1.195l-.444,1.065a21.416,21.416,0,0,0-2.783-1.146V115.4c0,.226.04.767.072,1.073h-1.2a9.4,9.4,0,0,0,.073-1.073v-4.43a5.874,5.874,0,0,0-.073-.928Z" transform="translate(-216.993 -56.909)" fill="#4c4948"/></g></svg>